<svg data-v-0dd9719b="" version="1.0" xmlns="http://www.w3.org/2000/svg" xmlns:xlink="http://www.w3.org/1999/xlink" width="100%" height="100%" viewBox="0 0 340.000000 100.000000" preserveAspectRatio="xMidYMid meet" color-interpolation-filters="sRGB" style="margin: auto;">
  <rect data-v-0dd9719b="" x="0" y="0" width="100%" height="100%" fill="#ffffff" fill-opacity="1" class="background"></rect>
  <rect data-v-0dd9719b="" x="0" y="0" width="100%" height="100%" fill="url(#watermark)" fill-opacity="1" class="watermarklayer"></rect>
  <g data-v-0dd9719b="" fill="#139ff7" class="basesvg" transform="translate(97.72000122070312,25.6349983215332)">
    <g data-gra="path-name" fill-rule="" class="tp-name">
      <g transform="scale(1)">
        <g>
          <path d="M8.45-40.88L20.15 0 14.37 0 2.6-40.88 8.45-40.88ZM14.88 0L27.3-30.94 33.22-30.94 20.73 0 14.88 0ZM33.09-30.94L26.78-30.94 33.09-30.94ZM30.16-40.88L41.86 0 36.01 0 24.25-40.88 30.16-40.88ZM36.47 0L52.26-40.82 58.24-40.82 42.38 0 36.47 0ZM75.08 0.72L75.08 0.72Q71.5 0.72 68.35-0.65 65.2-2.02 62.82-4.36 60.45-6.7 59.09-9.81 57.72-12.94 57.72-16.45L57.72-16.45Q57.72-20.02 59.09-23.14 60.45-26.26 62.82-28.6 65.2-30.94 68.35-32.3 71.5-33.67 75.08-33.67L75.08-33.67Q78.59-33.67 81.74-32.3 84.89-30.94 87.23-28.6 89.57-26.26 90.94-23.14 92.3-20.02 92.3-16.45L92.3-16.45Q92.3-12.94 90.94-9.81 89.57-6.7 87.23-4.36 84.89-2.02 81.74-0.65 78.59 0.72 75.08 0.72ZM75.08-27.56L75.08-27.56Q72.73-27.56 70.66-26.68 68.58-25.8 67.05-24.31 65.52-22.82 64.61-20.8 63.7-18.79 63.7-16.45L63.7-16.45Q63.7-14.11 64.61-12.09 65.52-10.08 67.05-8.55 68.58-7.02 70.66-6.14 72.73-5.27 75.08-5.27L75.08-5.27Q77.42-5.27 79.46-6.14 81.51-7.02 83.04-8.55 84.56-10.08 85.44-12.09 86.32-14.11 86.32-16.45L86.32-16.45Q86.32-18.79 85.44-20.8 84.56-22.82 83.04-24.31 81.51-25.8 79.46-26.68 77.42-27.56 75.08-27.56ZM94.9 11.31L94.9 5.53Q97.37 5.53 99.19 4.16 101.01 2.79 101.33 0.72L101.33 0.72 101.33-32.56 107.12-32.56 107.12-0.33Q107.12 1.95 106.21 4.06 105.3 6.17 103.64 7.77 101.98 9.36 99.74 10.34 97.5 11.31 94.9 11.31L94.9 11.31ZM104.13-37.31L104.13-37.31Q102.83-37.31 101.89-38.19 100.94-39.07 100.94-40.37L100.94-40.37Q100.94-41.66 101.89-42.54 102.83-43.42 104.13-43.42L104.13-43.42Q105.49-43.42 106.44-42.54 107.38-41.66 107.38-40.37L107.38-40.37Q107.38-39.07 106.44-38.19 105.49-37.31 104.13-37.31ZM129.94 0.72L129.94 0.72Q126.36 0.72 123.21-0.65 120.06-2.02 117.68-4.36 115.31-6.7 113.95-9.81 112.58-12.94 112.58-16.45L112.58-16.45Q112.58-20.02 113.95-23.14 115.31-26.26 117.68-28.6 120.06-30.94 123.21-32.3 126.36-33.67 129.94-33.67L129.94-33.67Q133.44-33.67 136.6-32.3 139.75-30.94 142.09-28.6 144.43-26.26 145.8-23.14 147.16-20.02 147.16-16.45L147.16-16.45Q147.16-12.94 145.8-9.81 144.43-6.7 142.09-4.36 139.75-2.02 136.6-0.65 133.44 0.72 129.94 0.72ZM129.94-27.56L129.94-27.56Q127.59-27.56 125.52-26.68 123.44-25.8 121.91-24.31 120.38-22.82 119.47-20.8 118.56-18.79 118.56-16.45L118.56-16.45Q118.56-14.11 119.47-12.09 120.38-10.08 121.91-8.55 123.44-7.02 125.52-6.14 127.59-5.27 129.94-5.27L129.94-5.27Q132.28-5.27 134.32-6.14 136.37-7.02 137.9-8.55 139.43-10.08 140.3-12.09 141.18-14.11 141.18-16.45L141.18-16.45Q141.18-18.79 140.3-20.8 139.43-22.82 137.9-24.31 136.37-25.8 134.32-26.68 132.28-27.56 129.94-27.56Z" transform="translate(-2.5999999046325684, 43.41999816894531)"></path>
        </g> 
      </g>
    </g> 
  </g>
  <defs v-gra="od"></defs>
</svg>
